<svg id="visual" viewBox="0 0 1920 1080" width="1920" height="1080" xmlns="http://www.w3.org/2000/svg" xmlns:xlink="http://www.w3.org/1999/xlink" version="1.1"><rect x="0" y="0" width="1920" height="1080" fill="#282C33"></rect><path d="M0 779L274 779L274 756L549 756L549 658L823 658L823 780L1097 780L1097 712L1371 712L1371 631L1646 631L1646 656L1920 656L1920 801L1920 1081L1920 1081L1646 1081L1646 1081L1371 1081L1371 1081L1097 1081L1097 1081L823 1081L823 1081L549 1081L549 1081L274 1081L274 1081L0 1081Z" fill="#24272e"></path><path d="M0 764L274 764L274 870L549 870L549 877L823 877L823 841L1097 841L1097 871L1371 871L1371 824L1646 824L1646 860L1920 860L1920 878L1920 1081L1920 1081L1646 1081L1646 1081L1371 1081L1371 1081L1097 1081L1097 1081L823 1081L823 1081L549 1081L549 1081L274 1081L274 1081L0 1081Z" fill="#21242a"></path><path d="M0 978L274 978L274 1010L549 1010L549 985L823 985L823 972L1097 972L1097 937L1371 937L1371 961L1646 961L1646 920L1920 920L1920 900L1920 1081L1920 1081L1646 1081L1646 1081L1371 1081L1371 1081L1097 1081L1097 1081L823 1081L823 1081L549 1081L549 1081L274 1081L274 1081L0 1081Z" fill="#1e2127"></path></svg>